<svg width="40" height="40" viewBox="0 0 40 40" fill="none" xmlns="http://www.w3.org/2000/svg">
<circle cx="20" cy="20" r="20" fill="#E6E6E6"/>
<path d="M18.9641 25.0895C15.6061 25.0895 12.8739 22.3505 12.8739 18.984C12.8739 15.6176 15.6061 12.8786 18.9641 12.8786C22.3221 12.8786 25.0543 15.6176 25.0543 18.984C25.0543 22.3505 22.3221 25.0895 18.9641 25.0895ZM25.3813 23.6928C26.3491 22.3702 26.9282 20.7462 26.9282 18.984C26.9282 14.5815 23.3556 11 18.9641 11C14.5726 11 11 14.5815 11 18.984C11 23.3865 14.5726 26.9681 18.9641 26.9681C20.9232 26.9681 22.7175 26.2514 24.1051 25.0698L27.4004 28.3733C27.5831 28.5564 27.823 28.6485 28.0628 28.6485C28.3027 28.6485 28.5425 28.5564 28.7252 28.3733C29.0916 28.006 29.0916 27.4124 28.7252 27.0451L25.3813 23.6928Z" fill="#808080"/>
</svg>
